<mxfile host="app.diagrams.net" modified="2023-08-30T07:13:59.325Z" agent="Mozilla/5.0 (X11; Linux x86_64) AppleWebKit/537.36 (KHTML, like Gecko) Chrome/116.0.0.0 Safari/537.36" etag="_d9SrCXCbYvCxY9hxSo3" version="21.7.0" type="device">
  <diagram id="C5RBs43oDa-KdzZeNtuy" name="Page-1">
    <mxGraphModel dx="589" dy="583" grid="1" gridSize="10" guides="1" tooltips="1" connect="1" arrows="1" fold="1" page="0" pageScale="1" pageWidth="827" pageHeight="1169" math="0" shadow="0">
      <root>
        <mxCell id="WIyWlLk6GJQsqaUBKTNV-0" />
        <mxCell id="WIyWlLk6GJQsqaUBKTNV-1" parent="WIyWlLk6GJQsqaUBKTNV-0" />
        <mxCell id="xF9irKn8oMYUqZk8ruy5-1" style="edgeStyle=orthogonalEdgeStyle;rounded=0;orthogonalLoop=1;jettySize=auto;html=1;entryX=0;entryY=0.5;entryDx=0;entryDy=0;endArrow=block;endFill=1;" edge="1" parent="WIyWlLk6GJQsqaUBKTNV-1" source="rKTd77SAYt78CUuwyyt--13" target="rKTd77SAYt78CUuwyyt--26">
          <mxGeometry relative="1" as="geometry" />
        </mxCell>
        <mxCell id="xF9irKn8oMYUqZk8ruy5-14" style="edgeStyle=orthogonalEdgeStyle;rounded=0;orthogonalLoop=1;jettySize=auto;html=1;exitX=1;exitY=0.5;exitDx=0;exitDy=0;entryX=0;entryY=0.5;entryDx=0;entryDy=0;endArrow=block;endFill=1;" edge="1" parent="WIyWlLk6GJQsqaUBKTNV-1" source="xF9irKn8oMYUqZk8ruy5-7" target="rKTd77SAYt78CUuwyyt--13">
          <mxGeometry relative="1" as="geometry" />
        </mxCell>
        <mxCell id="xF9irKn8oMYUqZk8ruy5-11" value="" style="group" vertex="1" connectable="0" parent="WIyWlLk6GJQsqaUBKTNV-1">
          <mxGeometry x="1080" y="80" width="200" height="210" as="geometry" />
        </mxCell>
        <mxCell id="rKTd77SAYt78CUuwyyt--25" value="Finalisierung" style="text;html=1;align=center;verticalAlign=middle;resizable=0;points=[];autosize=1;strokeColor=none;fillColor=none;container=0;" parent="xF9irKn8oMYUqZk8ruy5-11" vertex="1">
          <mxGeometry width="100" height="30" as="geometry" />
        </mxCell>
        <mxCell id="rKTd77SAYt78CUuwyyt--26" value="" style="rounded=0;whiteSpace=wrap;html=1;fillColor=none;container=0;" parent="xF9irKn8oMYUqZk8ruy5-11" vertex="1">
          <mxGeometry y="30" width="200" height="180" as="geometry" />
        </mxCell>
        <mxCell id="rKTd77SAYt78CUuwyyt--27" value="&lt;div&gt;Fertigstellung&lt;/div&gt;&lt;div&gt;(Feinschliff)&lt;/div&gt;" style="rounded=0;whiteSpace=wrap;html=1;container=0;fillColor=none;" parent="xF9irKn8oMYUqZk8ruy5-11" vertex="1">
          <mxGeometry x="25" y="50" width="150" height="60" as="geometry" />
        </mxCell>
        <mxCell id="rKTd77SAYt78CUuwyyt--28" value="Abschlussbericht" style="rounded=0;whiteSpace=wrap;html=1;container=0;fillColor=none;" parent="xF9irKn8oMYUqZk8ruy5-11" vertex="1">
          <mxGeometry x="25" y="130" width="150" height="60" as="geometry" />
        </mxCell>
        <mxCell id="rKTd77SAYt78CUuwyyt--29" style="edgeStyle=orthogonalEdgeStyle;rounded=0;orthogonalLoop=1;jettySize=auto;html=1;entryX=0.5;entryY=0;entryDx=0;entryDy=0;endArrow=block;endFill=1;" parent="xF9irKn8oMYUqZk8ruy5-11" source="rKTd77SAYt78CUuwyyt--27" target="rKTd77SAYt78CUuwyyt--28" edge="1">
          <mxGeometry relative="1" as="geometry" />
        </mxCell>
        <mxCell id="xF9irKn8oMYUqZk8ruy5-15" value="" style="group" vertex="1" connectable="0" parent="WIyWlLk6GJQsqaUBKTNV-1">
          <mxGeometry x="440" y="80" width="200" height="210" as="geometry" />
        </mxCell>
        <mxCell id="xF9irKn8oMYUqZk8ruy5-7" value="" style="rounded=0;whiteSpace=wrap;html=1;fillColor=none;container=0;" vertex="1" parent="xF9irKn8oMYUqZk8ruy5-15">
          <mxGeometry y="30" width="200" height="180" as="geometry" />
        </mxCell>
        <mxCell id="rKTd77SAYt78CUuwyyt--5" value="Konzeptionierung" style="text;html=1;align=center;verticalAlign=middle;resizable=0;points=[];autosize=1;strokeColor=none;fillColor=none;container=0;" parent="xF9irKn8oMYUqZk8ruy5-15" vertex="1">
          <mxGeometry width="130" height="30" as="geometry" />
        </mxCell>
        <mxCell id="xF9irKn8oMYUqZk8ruy5-8" value="&lt;div&gt;Projekt-Analyse&lt;/div&gt;" style="rounded=0;whiteSpace=wrap;html=1;container=0;fillColor=none;" vertex="1" parent="xF9irKn8oMYUqZk8ruy5-15">
          <mxGeometry x="25" y="50" width="150" height="60" as="geometry" />
        </mxCell>
        <mxCell id="xF9irKn8oMYUqZk8ruy5-12" style="edgeStyle=orthogonalEdgeStyle;rounded=0;orthogonalLoop=1;jettySize=auto;html=1;exitX=0.25;exitY=0;exitDx=0;exitDy=0;entryX=0.25;entryY=1;entryDx=0;entryDy=0;endArrow=block;endFill=1;" edge="1" parent="xF9irKn8oMYUqZk8ruy5-15" source="xF9irKn8oMYUqZk8ruy5-9" target="xF9irKn8oMYUqZk8ruy5-8">
          <mxGeometry relative="1" as="geometry" />
        </mxCell>
        <mxCell id="xF9irKn8oMYUqZk8ruy5-9" value="Pflichtenheft" style="rounded=0;whiteSpace=wrap;html=1;container=0;fillColor=none;" vertex="1" parent="xF9irKn8oMYUqZk8ruy5-15">
          <mxGeometry x="25" y="130" width="150" height="60" as="geometry" />
        </mxCell>
        <mxCell id="xF9irKn8oMYUqZk8ruy5-13" style="edgeStyle=orthogonalEdgeStyle;rounded=0;orthogonalLoop=1;jettySize=auto;html=1;exitX=0.75;exitY=1;exitDx=0;exitDy=0;entryX=0.75;entryY=0;entryDx=0;entryDy=0;endArrow=block;endFill=1;" edge="1" parent="xF9irKn8oMYUqZk8ruy5-15" source="xF9irKn8oMYUqZk8ruy5-8" target="xF9irKn8oMYUqZk8ruy5-9">
          <mxGeometry relative="1" as="geometry" />
        </mxCell>
        <mxCell id="xF9irKn8oMYUqZk8ruy5-16" value="" style="group" vertex="1" connectable="0" parent="WIyWlLk6GJQsqaUBKTNV-1">
          <mxGeometry x="680" y="80" width="360" height="210" as="geometry" />
        </mxCell>
        <mxCell id="rKTd77SAYt78CUuwyyt--13" value="&amp;nbsp;" style="rounded=0;whiteSpace=wrap;html=1;fillColor=none;container=0;" parent="xF9irKn8oMYUqZk8ruy5-16" vertex="1">
          <mxGeometry y="30" width="360" height="180" as="geometry" />
        </mxCell>
        <mxCell id="rKTd77SAYt78CUuwyyt--12" value="Implementierung" style="text;html=1;align=center;verticalAlign=middle;resizable=0;points=[];autosize=1;strokeColor=none;fillColor=none;container=0;" parent="xF9irKn8oMYUqZk8ruy5-16" vertex="1">
          <mxGeometry width="120" height="30" as="geometry" />
        </mxCell>
        <mxCell id="rKTd77SAYt78CUuwyyt--14" value="Entwicklung" style="rounded=0;whiteSpace=wrap;html=1;container=0;fillColor=none;" parent="xF9irKn8oMYUqZk8ruy5-16" vertex="1">
          <mxGeometry x="20" y="50" width="120" height="40" as="geometry" />
        </mxCell>
        <mxCell id="rKTd77SAYt78CUuwyyt--15" value="Testing" style="rounded=0;whiteSpace=wrap;html=1;container=0;fillColor=none;" parent="xF9irKn8oMYUqZk8ruy5-16" vertex="1">
          <mxGeometry x="220" y="50" width="120" height="40" as="geometry" />
        </mxCell>
        <mxCell id="rKTd77SAYt78CUuwyyt--18" style="edgeStyle=orthogonalEdgeStyle;rounded=0;orthogonalLoop=1;jettySize=auto;html=1;entryX=0;entryY=0.5;entryDx=0;entryDy=0;endArrow=block;endFill=1;" parent="xF9irKn8oMYUqZk8ruy5-16" source="rKTd77SAYt78CUuwyyt--14" target="rKTd77SAYt78CUuwyyt--15" edge="1">
          <mxGeometry relative="1" as="geometry" />
        </mxCell>
        <mxCell id="rKTd77SAYt78CUuwyyt--19" style="rounded=0;orthogonalLoop=1;jettySize=auto;html=1;entryX=0.5;entryY=1;entryDx=0;entryDy=0;exitX=0.25;exitY=0;exitDx=0;exitDy=0;endArrow=block;endFill=1;" parent="xF9irKn8oMYUqZk8ruy5-16" source="rKTd77SAYt78CUuwyyt--16" target="rKTd77SAYt78CUuwyyt--14" edge="1">
          <mxGeometry relative="1" as="geometry" />
        </mxCell>
        <mxCell id="rKTd77SAYt78CUuwyyt--16" value="Reflexion" style="rounded=0;whiteSpace=wrap;html=1;container=0;fillColor=none;" parent="xF9irKn8oMYUqZk8ruy5-16" vertex="1">
          <mxGeometry x="120" y="150" width="120" height="40" as="geometry" />
        </mxCell>
        <mxCell id="rKTd77SAYt78CUuwyyt--17" style="rounded=0;orthogonalLoop=1;jettySize=auto;html=1;entryX=0.75;entryY=0;entryDx=0;entryDy=0;exitX=0.5;exitY=1;exitDx=0;exitDy=0;endArrow=block;endFill=1;" parent="xF9irKn8oMYUqZk8ruy5-16" source="rKTd77SAYt78CUuwyyt--15" target="rKTd77SAYt78CUuwyyt--16" edge="1">
          <mxGeometry relative="1" as="geometry" />
        </mxCell>
      </root>
    </mxGraphModel>
  </diagram>
</mxfile>
